<?xml version="1.0" encoding="UTF-8"?> <svg xmlns="http://www.w3.org/2000/svg" viewBox="0 0 54 40.33"><defs><style>.cls-1{fill:#613842;}</style></defs><g id="Layer_2" data-name="Layer 2"><g id="Layer_1-2" data-name="Layer 1"><path class="cls-1" d="M53,38.33H1a1,1,0,0,0,0,2H53a1,1,0,0,0,0-2Z"></path><path class="cls-1" d="M5,36.33H49a1,1,0,0,0,0-2H48A21,21,0,0,0,28,14.38V12.33h5a1,1,0,0,0,0-2H21a1,1,0,0,0,0,2h5v2.05A21,21,0,0,0,6.05,34.33H5a1,1,0,0,0,0,2Zm22-20a19,19,0,0,1,19,18H8.05A19,19,0,0,1,27,16.33Z"></path><path class="cls-1" d="M20,6.93a1,1,0,0,0,.93.61,1.06,1.06,0,0,0,.38-.07,1,1,0,0,0,.54-1.31L19.5.62a1,1,0,1,0-1.84.76Z"></path><path class="cls-1" d="M41.78,16.2a1.07,1.07,0,0,0,.39-.07l5.54-2.3A1,1,0,0,0,46.94,12l-5.54,2.3a1,1,0,0,0,.38,1.92Z"></path><path class="cls-1" d="M32.74,7.47a1.06,1.06,0,0,0,.38.07,1,1,0,0,0,.93-.61l2.29-5.55A1,1,0,0,0,35.8.08a1,1,0,0,0-1.3.54L32.2,6.16A1,1,0,0,0,32.74,7.47Z"></path><path class="cls-1" d="M6.29,13.83l5.55,2.3a1,1,0,0,0,.38.07,1,1,0,0,0,.38-1.92L7.06,12a1,1,0,0,0-.77,1.85Z"></path></g></g></svg> 