<?xml version="1.0" encoding="utf-8"?>
<!-- Generator: Adobe Illustrator 24.1.3, SVG Export Plug-In . SVG Version: 6.00 Build 0)  -->
<svg version="1.1" id="Layer_1" xmlns="http://www.w3.org/2000/svg" xmlns:xlink="http://www.w3.org/1999/xlink" x="0px" y="0px"
	 viewBox="0 0 51.7 48.1" style="enable-background:new 0 0 51.7 48.1;" xml:space="preserve">
<style type="text/css">
	.st0{fill:#404041;}
	.st1{fill:#FEFEFE;}
	.st2{fill:#E5DFDC;}
	.st3{fill:#E4DEDB;}
</style>
<path class="st0" d="M50.7,10.7c2,5.3,0.9,10.2-2.7,14.5c-0.6,0.6-0.8,1.5-0.5,2.3c0.5,2.5-0.6,4.3-3.2,4.9
	c-0.9,0.2-1.4,0.6-1.4,1.5c0,0.1,0,0.1,0,0.2c-0.2,2.8-3.7,2.1-4.5,4.2c-1.1,2.7-1.5,3.1-5,3.1c-0.6,0-0.9,0.1-1.2,0.6
	c-0.9,1.7-2.5,2.7-3.7,4.1c-1.3,1.8-3.6,2.5-5.7,1.7c-1.1-0.9-2.2-1.9-2.1-3.5c0-1-0.7-0.9-1.3-1c-1.9-0.2-3.3-1.7-3.4-3.6
	c-0.1-0.9-0.5-1.2-1.3-1.3c-1.9-0.1-3.4-1.6-3.4-3.5c-0.1-0.9-0.5-1.1-1.3-1.3c-2.5-0.5-3.7-1.9-3.4-4.5c0-0.8-0.3-1.7-1-2.2
	c-2.6-2.6-4.5-5.8-5.3-9.4c-1.2-5.8,1.5-11.5,7-15.1C12.5-0.8,18.5-1,23.4,2.7c2,1.5,3.2,1.7,5.5,0.2c6.3-4.1,15.6-1.3,20.3,5.6
	C49.8,9.2,50.2,10,50.7,10.7L50.7,10.7z"/>
<path class="st1" d="M1.5,13.9C1.9,8.9,5.2,5,10.4,2.7c5.1-2.3,9.7-1,13.9,2.4c1,0.8,0.5,1.2-0.1,1.8c-2.8,2.7-5.6,5.5-8.4,8.2
	c-1.1,1.1-1,1.8,0.1,2.7c2.8,2.1,6.7,2,9.4-0.3c1.6-1.4,3.1-3,4.5-4.5c0.6-0.7,1.1-0.7,1.7,0c4.6,4.7,9.2,9.3,13.8,13.9
	c0.9,0.8,1.1,2.2,0.3,3.1c-0.1,0.1-0.2,0.2-0.3,0.3c-0.9,1-2.3,1.1-3.3,0.2c-0.1-0.1-0.2-0.2-0.3-0.3c-3-2.9-6-5.9-8.9-8.9
	c-0.3-0.3-0.6-0.6-0.9-0.9c-0.5-0.4-1-1.4-1.7-0.6c-0.6,0.7,0.3,1.2,0.8,1.7c3.1,3.1,6.2,6.3,9.3,9.4c0.8,0.8,1.5,1.5,1.2,2.8
	c-0.6,2-2.7,2.6-4.4,1c-3.1-3-6.2-6.1-9.2-9.2c-0.4-0.4-0.7-0.7-1.1-1s-0.7-0.6-1.1-0.2c-0.5,0.4-0.3,0.9,0.1,1.3l3.3,3.3
	c2.3,2.3,4.5,4.5,6.8,6.8c1.4,1.4,1.4,3,0.1,4s-2.7,0.7-3.7-1c-0.6-1.3-1.9-2.2-3.4-2.3c-0.9,0-0.9-0.5-1.1-1.2
	c-0.2-1.9-1.7-3.4-3.7-3.5c-0.9-0.1-1-0.4-1.1-1.2c-0.1-1.9-1.6-3.5-3.6-3.6c-0.9-0.1-1.1-0.5-1.2-1.3c-0.7-3.5-4.3-4.6-7-2.2
	c-0.5,0.4-0.9,0.9-1.4,1.4c-2.6,2.6-2.6,2.6-4.9-0.4C2.6,21.3,1.4,17.7,1.5,13.9L1.5,13.9z"/>
<path class="st2" d="M35.6,2.5c6.1,0.7,10.9,3.4,13.6,9.1c1.9,4.1,0.6,10.1-2.6,13c-1,0.9-1.2-0.1-1.6-0.5
	c-4.2-4.1-8.4-8.2-12.5-12.5c-1.4-1.5-2.3-1.4-3.5,0.1c-1.4,1.6-2.9,3.1-4.5,4.5c-1.9,1.7-4.5,2-6.7,0.9c-0.8-0.5-1-0.9-0.3-1.6
	c3.6-3.5,7.2-7.1,10.9-10.5C30.3,3.3,33,2.4,35.6,2.5z"/>
<g>
	<path class="st3" d="M31.1,40.4c0,0.6-0.3,1.3-0.7,1.7c-1.2,1.3-2.5,2.6-3.8,3.8c-0.9,1-2.4,1.1-3.4,0.2C23.1,46,23,45.9,23,45.8
		c-1-0.9-1.1-2.4-0.2-3.4c0.1-0.1,0.2-0.2,0.2-0.2c1.3-1.4,2.6-2.7,3.9-3.9c0.7-0.7,1.9-0.9,2.8-0.4C30.6,38.4,31.2,39.4,31.1,40.4
		L31.1,40.4z"/>
	<path class="st3" d="M7.9,29.5c0-0.5,0.3-1,0.7-1.4c1.3-1.3,2.6-2.7,3.9-3.9c0.9-1,2.4-1,3.4-0.1c0.1,0.1,0.2,0.2,0.2,0.3
		c1,0.9,1.1,2.3,0.2,3.3c-0.1,0.1-0.2,0.2-0.3,0.3c-1.3,1.3-2.6,2.6-3.9,3.9c-0.7,0.7-1.9,0.9-2.8,0.3C8.4,31.6,7.8,30.6,7.9,29.5z"
		/>
	<path class="st3" d="M18.9,28.2c1,0,1.9,0.5,2.4,1.3c0.6,0.8,0.5,1.8-0.1,2.6c-1.5,1.6-3,3.2-4.7,4.6c-1.2,0.7-2.7,0.3-3.5-0.9
		c-0.4-0.7-0.5-1.5-0.2-2.2c1.4-2.1,3.2-3.9,5.3-5.3C18.4,28.3,18.7,28.2,18.9,28.2z"/>
	<path class="st3" d="M26.4,35.7c0,0.6-0.3,1.2-0.8,1.6c-1.3,1.2-2.5,2.5-3.8,3.8c-0.8,1-2.2,1.1-3.2,0.3c-0.1-0.1-0.1-0.1-0.2-0.2
		c-1.1-0.7-1.3-2.2-0.6-3.2c0.1-0.1,0.2-0.2,0.3-0.3c1.3-1.4,2.6-2.8,4.1-4.1c0.7-0.7,1.9-0.9,2.8-0.4
		C25.9,33.7,26.5,34.7,26.4,35.7L26.4,35.7z"/>
</g>
</svg>
